<svg width="250" height="240" viewBox="0 0 250 240" fill="none" xmlns="http://www.w3.org/2000/svg">
<path d="M81.9173 20.1303C73.6356 29.2605 64.6638 50.1475 55.692 58.4188C46.7203 66.69 36.0614 65.9901 24.7953 69.9951C13.5293 74.0001 3.5999 84.2147 1.52949 98.0001C-0.540924 111.786 3.52954 124.5 12.5293 132.5C21.529 140.5 34.4275 140.695 38.9785 154.228C43.5295 167.76 40.0775 175.5 38.9785 185.793C37.8794 196.085 38.3682 207.539 49.6404 218.256C60.9126 228.974 79.9972 227.98 90.199 223.844C100.401 219.708 109.523 212.816 124.016 216.262C138.509 219.708 145.41 230.737 155.072 235.562C164.734 240.387 183.367 241.076 196.48 231.426C209.593 221.776 212.353 204.544 213.043 193.516C213.733 182.488 213.043 168.013 216.494 154.228C219.945 140.442 228.677 131.414 237.649 123.832C246.621 116.25 251.452 101.221 246.621 80.5433C241.79 59.8651 225.958 55.6877 212.494 53.5939C199.03 51.5001 184.748 54.2831 171.635 46.0119C158.522 37.7406 155.072 23.2659 148.171 14.9947C141.269 6.72341 132.607 -0.237126 116.044 1.14142C99.4806 2.51996 90.199 11.0001 81.9173 20.1303Z" fill="#E8F0FE" stroke="#E8F0FE"/>
<line x1="58.5295" y1="186" x2="58.5295" y2="194" stroke="#8AB4F8" stroke-width="2" stroke-linecap="round"/>
<line x1="61.5295" y1="190" x2="55.5295" y2="190" stroke="#8AB4F8" stroke-width="2" stroke-linecap="round"/>
<line x1="74.5295" y1="125" x2="74.5295" y2="134" stroke="#8AB4F8" stroke-width="2" stroke-linecap="round"/>
<line x1="78.5295" y1="130" x2="70.5295" y2="130" stroke="#8AB4F8" stroke-width="2" stroke-linecap="round"/>
<line x1="224.53" y1="96" x2="224.53" y2="104" stroke="#8AB4F8" stroke-width="2" stroke-linecap="round"/>
<line x1="227.53" y1="100" x2="221.53" y2="100" stroke="#8AB4F8" stroke-width="2" stroke-linecap="round"/>
<line x1="38.5295" y1="84" x2="38.5295" y2="91" stroke="#8AB4F8" stroke-width="2" stroke-linecap="round"/>
<line x1="41.5295" y1="88" x2="35.5295" y2="88" stroke="#8AB4F8" stroke-width="2" stroke-linecap="round"/>
<circle cx="72.0295" cy="203.5" r="1.5" fill="#8AB4F8"/>
<circle cx="230.03" cy="78.5" r="1.5" fill="#8AB4F8"/>
<circle cx="206.03" cy="142.5" r="1.5" fill="#8AB4F8"/>
<circle cx="112.03" cy="26.5" r="1.5" fill="#8AB4F8"/>
<circle cx="26.0295" cy="122.5" r="1.5" fill="#8AB4F8"/>
<circle cx="74.0295" cy="74.5" r="1.5" fill="#8AB4F8"/>
<path d="M158 199L141.406 108.226C147.715 104.258 152.558 98.3593 155.206 91.4171C157.853 84.4749 158.162 76.8651 156.086 69.7331C154.01 62.6012 149.661 56.3332 143.693 51.8725C137.726 47.4119 130.464 45 123 45C115.536 45 108.274 47.4119 102.306 51.8725C96.3394 56.3332 91.9904 62.6012 89.9142 69.7331C87.838 76.8651 88.1468 84.4749 90.7943 91.4171C93.4418 98.3593 98.2846 104.258 104.594 108.226L88 199H158Z" fill="#D2E3FC"/>
<path fill-rule="evenodd" clip-rule="evenodd" d="M136 129.083C138.761 129.083 141 126.845 141 124.083C141 121.322 138.761 119.083 136 119.083C133.581 119.083 131.563 120.801 131.1 123.084H117V123.75V123.75V129.083H122.873V123.75H131.011C131.004 123.86 131 123.971 131 124.083C131 126.845 133.239 129.083 136 129.083Z" fill="#4285F4"/>
<g clip-path="url(#clip0_821:8248)">
<path d="M172.538 46.5903C171.274 46.4388 170.042 46.0916 168.886 45.5611C168.148 45.2308 167.311 45.1919 166.545 45.4522C165.779 45.7125 165.14 46.2528 164.756 46.9645C164.089 48.1973 164.502 49.4081 165.378 50.3877C165.609 50.6463 167.686 52.7102 167.878 52.5891L172.538 50.2776V46.5903Z" fill="#185ABC" stroke="#185ABC" stroke-linecap="round" stroke-linejoin="round"/>
<path d="M194.936 96.4078L195.526 101.614C195.999 104.762 194.854 107.894 192.282 109.66L189.765 111.267L186.229 99.93L187.931 93.623L194.936 96.4078Z" fill="#AECBFA" stroke="#AECBFA" stroke-linecap="round" stroke-linejoin="round"/>
<path d="M171.1 198.497L164.073 198.541L164.409 205.806C164.497 209.895 158.648 212.58 154.534 213.687C154.248 213.777 153.985 213.927 153.762 214.128C153.54 214.329 153.363 214.576 153.244 214.851C153.126 215.126 153.068 215.424 153.075 215.723C153.081 216.023 153.153 216.317 153.284 216.587H170.527C170.772 216.58 171.014 216.524 171.237 216.423C171.46 216.321 171.66 216.176 171.826 215.996C171.993 215.816 172.121 215.605 172.205 215.375C172.288 215.144 172.324 214.9 172.312 214.655C172.224 209.267 171.414 203.852 171.1 198.497Z" fill="white" stroke="white" stroke-linecap="round" stroke-linejoin="round"/>
<path d="M188.779 216.604L190.106 216.747H200.73L198.164 198.673L190.817 198.767C190.817 198.767 192.083 208.712 192.083 208.728C192.254 209.623 192.079 210.549 191.593 211.32C190.591 212.845 188.74 214.699 188.779 216.604Z" fill="white" stroke="white" stroke-linecap="round" stroke-linejoin="round"/>
<path d="M179.229 55.4015L178.739 56.8269C177.439 60.6243 178.084 64.0805 178.32 68.1696H170.682L170.23 62.0387C170.23 62.0387 169.244 62.2478 169.228 62.2588C166.865 63.2275 164.387 62.2588 164.337 59.6282C164.283 57.7398 164.583 55.858 165.224 54.0806L165.808 51.6536C166.139 50.223 166.944 48.9461 168.093 48.03C169.241 47.114 170.666 46.6125 172.136 46.6069H172.747C173.804 46.6268 174.842 46.8896 175.78 47.3749C176.719 47.8602 177.534 48.5549 178.16 49.4053C178.787 50.2557 179.21 51.2389 179.395 52.2788C179.58 53.3186 179.524 54.3871 179.229 55.4015Z" fill="#AECBFA" stroke="#AECBFA" stroke-linecap="round" stroke-linejoin="round"/>
<path d="M170.45 52.2758C171.291 52.47 172.028 52.9753 172.511 53.69C172.994 54.4048 173.189 55.276 173.055 56.1282C173.055 56.1282 172.708 58.0159 172.708 58.0269C172.704 58.0837 172.704 58.1408 172.708 58.1976C172.671 58.6692 172.732 59.1433 172.886 59.5906C173.04 60.0379 173.284 60.4488 173.604 60.7977C173.924 61.1466 174.312 61.426 174.744 61.6187C175.177 61.8114 175.644 61.9133 176.117 61.9179H177.924C178.045 60.1945 178.31 58.4842 178.717 56.8052L179.207 55.3798C179.504 54.3647 179.562 53.295 179.378 52.2537C179.193 51.2125 178.771 50.2277 178.144 49.3759C177.517 48.5242 176.702 47.8283 175.762 47.3424C174.822 46.8565 173.783 46.5936 172.725 46.5742H172.114C170.747 46.5729 169.416 47.0066 168.313 47.8125C167.827 48.1658 167.486 48.6846 167.355 49.2714C167.224 49.8582 167.312 50.4726 167.603 50.999C167.777 51.3104 168.025 51.5749 168.324 51.7695C168.749 52.0076 169.217 52.1591 169.701 52.2153C169.778 52.2593 170.395 52.2648 170.45 52.2758Z" fill="#185ABC" stroke="#185ABC" stroke-linecap="round" stroke-linejoin="round"/>
<path d="M199.067 204.986C193.295 142.164 191.323 125.329 191.147 122.621C191.081 121.614 191.147 122.621 190.685 114.79C190.685 114.79 183.817 111.086 176.723 111.091C168.963 111.091 160.889 114.79 160.889 114.79C159.893 119.853 159.353 125.147 158.725 130.304C158.226 134.376 157.754 138.462 157.31 142.56C154.787 166.109 156.797 181.827 156.891 205.465C162.195 205.812 166.661 205.465 171.976 205.58C170.533 183.418 170.169 168.933 172.863 146.935C173.518 141.586 174.179 136.583 175.066 131.262V131.217C175.096 131.06 175.182 130.919 175.307 130.819C175.433 130.719 175.59 130.667 175.75 130.673C175.911 130.679 176.064 130.742 176.182 130.851C176.299 130.96 176.374 131.108 176.393 131.267C178.855 147.926 182.859 191.293 184.654 205.014L199.067 204.986Z" fill="#AECBFA" stroke="#AECBFA" stroke-linecap="round" stroke-linejoin="round"/>
<path d="M189.335 80.1396L189.952 97.1674" stroke="#185ABC" stroke-linecap="round" stroke-linejoin="round"/>
<path d="M163.968 90.7503C163.606 96.4155 162.953 102.059 162.013 107.657C162.371 102.792 163.114 98.5487 163.665 93.7057C163.665 93.7057 163.709 92.3298 163.77 90.5632L154.545 90.3706L153.052 105.015C153.015 105.414 152.895 105.801 152.701 106.151C152.507 106.502 152.242 106.808 151.923 107.052L136.503 118.405L127.14 122.153C126.8 122.306 126.529 122.578 126.377 122.918C126.226 123.259 126.205 123.642 126.319 123.997C126.394 124.315 126.584 124.595 126.852 124.783C127.12 124.971 127.448 125.053 127.773 125.015L129.062 124.718L130.136 126.958C131.194 129.159 133.749 129.875 135.588 128.444L140.545 123.749C143.96 121.861 147.374 120.166 150.789 118.246C154.771 116.044 161.159 113.958 161.804 108.637C162.503 102.5 163.247 96.9142 163.968 90.7503Z" fill="#AECBFA" stroke="#AECBFA" stroke-linecap="round" stroke-linejoin="round"/>
<path d="M163.302 97.0905V97.2007L162.387 104.355C162.272 105.258 162.14 106.215 161.991 107.283C161.688 109.165 160.801 115.428 160.339 118.527H191.026L189.578 97.1786L194.942 96.9915C194.567 93.783 194.182 90.9817 193.598 87.8062C191.946 78.7585 190.47 68.1753 176.883 66.9316C174.553 66.7821 172.213 66.8835 169.905 67.2342C164.161 67.9552 159.32 72.9578 157.095 78.1641C154.771 83.6015 154.385 91.0752 153.845 96.8759L163.302 97.0905Z" fill="#4285F4" stroke="#4285F4" stroke-linecap="round" stroke-linejoin="round"/>
<path d="M163.296 97.0905L164.304 85.0874" stroke="#185ABC" stroke-linecap="round" stroke-linejoin="round"/>
<path d="M182.49 88.6152L172.169 103.04" stroke="#185ABC" stroke-linecap="round" stroke-linejoin="round"/>
<path d="M190.228 82.8804L189.534 97.426" stroke="#185ABC" stroke-linecap="round" stroke-linejoin="round"/>
</g>
<defs>
<clipPath id="clip0_821:8248">
<rect width="75" height="172" fill="white" transform="translate(126 45)"/>
</clipPath>
</defs>
</svg>
